<svg xmlns="http://www.w3.org/2000/svg" viewBox="0 0 256 256" width="256" height="256" role="img">
  <defs>
    <linearGradient id="g1" x1="0" y1="0" x2="1" y2="1">
      <stop offset="0%" stop-color="#FF7EB3"/>
      <stop offset="100%" stop-color="#FF4D8D"/>
    </linearGradient>
    <linearGradient id="g2" x1="0" y1="1" x2="1" y2="0">
      <stop offset="0%" stop-color="#FFD1E3"/>
      <stop offset="100%" stop-color="#FFC2DA"/>
    </linearGradient>
    <clipPath id="circleClip">
      <circle cx="128" cy="128" r="118"/>
    </clipPath>
  </defs>
  <rect width="256" height="256" fill="url(#g1)" rx="128"/>
  <g clip-path="url(#circleClip)">
    <circle cx="128" cy="128" r="120" fill="url(#g2)" opacity="0.25"/>
    <g opacity="0.15">
      <circle cx="52" cy="64" r="20" fill="#ffffff"/>
      <circle cx="210" cy="180" r="16" fill="#ffffff"/>
      <circle cx="170" cy="40" r="12" fill="#ffffff"/>
    </g>
  </g>
  <g fill="#ffffff" transform="translate(0,8)">
    <path d="M86 176c-2 0-3-1-3-3v-90c0-2 1-3 3-3h20c17 0 30 12 30 30 0 15-10 25-23 28l21 34c1 2 0 4-2 4h-16c-2 0-3-1-4-2l-19-32h-5v31c0 2-1 3-3 3zm23-54c10 0 18-7 18-17 0-11-8-18-18-18h-15v35h15z"/>
  </g>
</svg>
