<svg xmlns="http://www.w3.org/2000/svg" viewBox="0 0 200 200" width="200" height="200">
  <circle cx="100" cy="100" fill="#f2f2f2" r="90" />
  <path
    d="M100 30 A30 30 0 0 1 130 60 L130 100 A30 30 0 0 1 100 130 L100 170 A30 30 0 0 1 70 140 L70 100 A30 30 0 0 1 100 70 Z"
    fill="#0066cc"
  />
  <circle cx="165" cy="100" fill="#cc3300" r="15" />
  <circle cx="35" cy="100" fill="#ff9900" r="15" />
  <circle cx="100" cy="165" fill="#33cc33" r="15" />
  <path
    d="M85 95 A10 10 0 1 1 95 105 A10 10 0 1 1 105 95 A10 10 0 1 1 115 105 A10 10 0 1 1 85 95"
    fill="none"
    stroke="white"
    stroke-width="3"
  />
</svg>

