<svg width="64" height="64" viewBox="0 0 64 64" xmlns="http://www.w3.org/2000/svg">
  <defs>
    <mask id="circle">
      <rect width="64" height="64" fill="white"/>
      <circle cx="32" cy="32" r="32" fill="black"/>
    </mask>
  </defs>
  
  <!-- Fond circulaire beige -->
  <circle cx="32" cy="32" r="32" fill="#f5f1e6" mask="url(#circle)"/>
  
  <!-- Pièce de puzzle bleue -->
  <path
    d="M 19.2 12.8 L 27.2 12.8 C 27.2 10.24 30.4 10.24 30.4 12.8 C 30.4 10.24 33.6 10.24 33.6 12.8 L 41.6 12.8 C 44.16 12.8 44.8 13.44 44.8 16 L 44.8 24 C 47.36 24 47.36 27.2 44.8 28.8 C 47.36 28.8 47.36 32 44.8 32 L 44.8 40 C 44.8 42.56 44.16 43.2 41.6 43.2 L 33.6 43.2 C 33.6 45.76 33.6 48.96 30.4 48.96 C 27.2 48.96 27.2 45.76 27.2 43.2 L 19.2 43.2 C 16.64 43.2 16 42.56 16 40 L 16 32 C 13.44 32 13.44 28.8 16 28.8 C 13.44 28.8 13.44 25.6 16 24 L 16 16 C 16 13.44 16.64 12.8 19.2 12.8 Z"
    fill="#5eb3d6"
    stroke="#1e3a5f"
    stroke-width="1"
  />
  
  <!-- Points décoratifs -->
  <circle cx="51.2" cy="30.4" r="2" fill="#e07856" />
  <circle cx="12.8" cy="30.4" r="1.6" fill="#e07856" opacity="0.7" />
  <circle cx="30.4" cy="8.96" r="1.6" fill="#e07856" />
  <circle cx="30.4" cy="51.84" r="1.6" fill="#e07856" opacity="0.7" />
</svg>
